<svg id="SvgjsSvg1017" xmlns="http://www.w3.org/2000/svg" version="1.1" xmlns:xlink="http://www.w3.org/1999/xlink" xmlns:svgjs="http://svgjs.com/svgjs" width="23" height="13" viewBox="0 0 23 13"><title>behance</title><desc>Created with Avocode.</desc><defs id="SvgjsDefs1018"></defs><path id="SvgjsPath1019" d="M1514.87 2862.84V2861.54H1509.36V2862.84ZM1504.11 2867.02C1504.57 2866.8 1504.9199999999998 2866.55 1505.1499999999999 2866.28C1505.58 2865.8 1505.79 2865.1600000000003 1505.79 2864.3700000000003C1505.79 2863.6000000000004 1505.58 2862.9400000000005 1505.1599999999999 2862.3800000000006C1504.4599999999998 2861.4800000000005 1503.2799999999997 2861.0300000000007 1501.61 2861.0000000000005H1495V2874.0000000000005H1501.17C1501.8600000000001 2874.0000000000005 1502.5 2873.9400000000005 1503.1000000000001 2873.8200000000006C1503.69 2873.7100000000005 1504.21 2873.4900000000007 1504.64 2873.1700000000005C1505.0300000000002 2872.9000000000005 1505.3500000000001 2872.5500000000006 1505.6100000000001 2872.1500000000005C1506.0200000000002 2871.5400000000004 1506.22 2870.8500000000004 1506.22 2870.0800000000004C1506.22 2869.3300000000004 1506.04 2868.7000000000003 1505.69 2868.1700000000005C1505.3400000000001 2867.6500000000005 1504.81 2867.2700000000004 1504.1100000000001 2867.0200000000004ZM1498.16 2863.26H1500.71C1501.3600000000001 2863.26 1501.9 2863.3300000000004 1502.32 2863.46C1502.81 2863.65 1503.06 2864.06 1503.06 2864.66C1503.06 2865.21 1502.87 2865.5899999999997 1502.5 2865.7999999999997C1502.13 2866.0199999999995 1501.65 2866.1299999999997 1501.06 2866.1299999999997H1498.1599999999999ZM1502.44 2871.51C1502.1100000000001 2871.67 1501.65 2871.7400000000002 1501.05 2871.7400000000002H1498.1599999999999V2868.28H1501.1C1501.6799999999998 2868.28 1502.1399999999999 2868.36 1502.4699999999998 2868.5C1503.0499999999997 2868.75 1503.3399999999997 2869.22 1503.3399999999997 2869.89C1503.3399999999997 2870.69 1503.0399999999997 2871.23 1502.4399999999996 2871.5099999999998ZM1516.14 2865.85C1515.69 2865.22 1515.13 2864.7599999999998 1514.44 2864.47C1513.76 2864.18 1512.99 2864.04 1512.14 2864.04C1510.7 2864.04 1509.5300000000002 2864.46 1508.63 2865.33C1507.73 2866.19 1507.2800000000002 2867.42 1507.2800000000002 2869.04C1507.2800000000002 2870.7599999999998 1507.7800000000002 2872 1508.7700000000002 2872.77C1509.7700000000002 2873.53 1510.9200000000003 2873.92 1512.2300000000002 2873.92C1513.8100000000002 2873.92 1515.0400000000002 2873.46 1515.9200000000003 2872.56C1516.4800000000002 2871.99 1516.8000000000004 2871.43 1516.8700000000003 2870.87H1514.2500000000005C1514.1000000000004 2871.14 1513.9200000000005 2871.3599999999997 1513.7200000000005 2871.5099999999998C1513.3600000000006 2871.7999999999997 1512.8800000000006 2871.9399999999996 1512.3000000000004 2871.9399999999996C1511.7500000000005 2871.9399999999996 1511.2800000000004 2871.8199999999997 1510.8900000000003 2871.5899999999997C1510.2400000000002 2871.2099999999996 1509.9000000000003 2870.5599999999995 1509.8600000000004 2869.62H1517.0000000000005C1517.0200000000004 2868.8199999999997 1516.9900000000005 2868.2 1516.9200000000005 2867.7799999999997C1516.8000000000006 2867.0499999999997 1516.5400000000004 2866.3999999999996 1516.1400000000006 2865.85ZM1514.34 2868.02H1509.9199999999998C1510.0199999999998 2867.41 1510.2399999999998 2866.93 1510.61 2866.58C1510.9699999999998 2866.22 1511.4799999999998 2866.04 1512.1399999999999 2866.04C1512.7399999999998 2866.04 1513.2499999999998 2866.21 1513.6599999999999 2866.55C1514.07 2866.88 1514.29 2867.3700000000003 1514.34 2868.02Z " fill="#ffffff" fill-opacity="1" transform="matrix(1,0,0,1,-1495,-2861)"></path></svg>