<svg id="SvgjsSvg1014" xmlns="http://www.w3.org/2000/svg" version="1.1" xmlns:xlink="http://www.w3.org/1999/xlink" xmlns:svgjs="http://svgjs.com/svgjs" width="25" height="25" viewBox="0 0 25 25"><title>dribbble</title><desc>Created with Avocode.</desc><defs id="SvgjsDefs1015"></defs><path id="SvgjsPath1016" d="M1416.5 2880C1414.78 2880 1413.16 2879.67 1411.65 2879.01C1410.13 2878.3500000000004 1408.8000000000002 2877.46 1407.67 2876.3300000000004C1406.54 2875.2000000000003 1405.65 2873.8700000000003 1404.99 2872.3500000000004C1404.33 2870.84 1404 2869.2200000000003 1404 2867.5000000000005C1404 2865.7800000000007 1404.33 2864.1600000000003 1404.99 2862.6500000000005C1405.65 2861.1300000000006 1406.54 2859.8000000000006 1407.67 2858.6700000000005C1408.8000000000002 2857.5400000000004 1410.13 2856.6500000000005 1411.65 2855.9900000000007C1413.16 2855.330000000001 1414.7800000000002 2855.000000000001 1416.5 2855.000000000001C1418.22 2855.000000000001 1419.84 2855.330000000001 1421.35 2855.9900000000007C1422.87 2856.6500000000005 1424.1999999999998 2857.540000000001 1425.33 2858.6700000000005C1426.46 2859.8000000000006 1427.35 2861.1300000000006 1428.01 2862.6500000000005C1428.67 2864.1600000000008 1429 2865.7800000000007 1429 2867.5000000000005C1429 2869.2200000000003 1428.67 2870.8400000000006 1428.01 2872.3500000000004C1427.35 2873.8700000000003 1426.46 2875.2000000000003 1425.33 2876.3300000000004C1424.1999999999998 2877.4600000000005 1422.87 2878.3500000000004 1421.35 2879.01C1419.84 2879.67 1418.2199999999998 2880 1416.5 2880ZM1427.05 2869.21C1426.96 2869.19 1426.71 2869.13 1426.32 2869.02C1425.9199999999998 2868.91 1425.4199999999998 2868.82 1424.82 2868.73C1424.23 2868.65 1423.55 2868.6 1422.78 2868.58C1422.01 2868.5699999999997 1421.21 2868.62 1420.3799999999999 2868.75C1420.7199999999998 2869.71 1421.02 2870.61 1421.27 2871.47C1421.53 2872.33 1421.74 2873.0899999999997 1421.91 2873.7599999999998C1422.0800000000002 2874.43 1422.21 2874.99 1422.2900000000002 2875.4399999999996C1422.3700000000001 2875.8999999999996 1422.4300000000003 2876.2 1422.4700000000003 2876.3699999999994C1423.6600000000003 2875.5499999999993 1424.6600000000003 2874.5299999999993 1425.4600000000003 2873.2999999999993C1426.2700000000002 2872.0699999999993 1426.7900000000002 2870.709999999999 1427.0500000000002 2869.209999999999ZM1420.68 2877.34C1420.64 2877.11 1420.5700000000002 2876.7400000000002 1420.46 2876.23C1420.3500000000001 2875.72 1420.21 2875.11 1420.02 2874.4C1419.84 2873.69 1419.62 2872.89 1419.36 2872.01C1419.1 2871.1400000000003 1418.78 2870.21 1418.3999999999999 2869.2400000000002C1418.3799999999999 2869.2500000000005 1418.35 2869.26 1418.32 2869.26C1416.82 2869.7900000000004 1415.54 2870.4100000000003 1414.49 2871.15C1413.45 2871.88 1412.59 2872.58 1411.93 2873.26C1411.27 2873.94 1410.79 2874.53 1410.48 2875.0400000000004C1410.17 2875.5400000000004 1409.99 2875.8400000000006 1409.94 2875.9300000000003C1410.8600000000001 2876.6400000000003 1411.8700000000001 2877.1900000000005 1412.98 2877.59C1414.08 2877.98 1415.25 2878.1800000000003 1416.5 2878.1800000000003C1417.96 2878.1800000000003 1419.36 2877.9 1420.68 2877.34ZM1408.56 2874.66C1408.61 2874.5499999999997 1408.84 2874.21 1409.23 2873.6299999999997C1409.63 2873.0499999999997 1410.2 2872.39 1410.93 2871.6499999999996C1411.66 2870.91 1412.55 2870.16 1413.6000000000001 2869.41C1414.65 2868.66 1415.8700000000001 2868.06 1417.2600000000002 2867.6099999999997C1417.3300000000002 2867.5699999999997 1417.4000000000003 2867.5499999999997 1417.4600000000003 2867.5399999999995C1417.5300000000002 2867.5299999999993 1417.5900000000004 2867.5099999999993 1417.6700000000003 2867.4699999999993C1417.5200000000002 2867.169999999999 1417.3800000000003 2866.8699999999994 1417.2300000000002 2866.5799999999995C1417.0900000000001 2866.2899999999995 1416.9400000000003 2865.9899999999993 1416.8000000000002 2865.6799999999994C1415.4600000000003 2866.0799999999995 1414.16 2866.379999999999 1412.89 2866.5899999999992C1411.63 2866.7999999999993 1410.49 2866.9499999999994 1409.49 2867.039999999999C1408.49 2867.129999999999 1407.66 2867.179999999999 1407 2867.189999999999C1406.34 2867.1999999999994 1405.94 2867.1999999999994 1405.82 2867.1999999999994V2867.5299999999993C1405.82 2868.899999999999 1406.06 2870.189999999999 1406.55 2871.399999999999C1407.04 2872.619999999999 1407.71 2873.6999999999994 1408.56 2874.6599999999994ZM1406.06 2865.33C1406.1699999999998 2865.33 1406.51 2865.33 1407.09 2865.3199999999997C1407.6699999999998 2865.3099999999995 1408.3999999999999 2865.2599999999998 1409.29 2865.18C1410.17 2865.1 1411.19 2864.97 1412.34 2864.79C1413.49 2864.61 1414.6799999999998 2864.35 1415.9299999999998 2864.0299999999997C1415.4799999999998 2863.2499999999995 1415.0299999999997 2862.5099999999998 1414.59 2861.81C1414.1499999999999 2861.1 1413.74 2860.47 1413.3799999999999 2859.92C1413.02 2859.37 1412.7099999999998 2858.91 1412.4599999999998 2858.55C1412.2099999999998 2858.19 1412.0399999999997 2857.96 1411.9699999999998 2857.8500000000004C1410.4499999999998 2858.55 1409.1699999999998 2859.5600000000004 1408.1299999999999 2860.8700000000003C1407.1 2862.1800000000003 1406.3999999999999 2863.6700000000005 1406.06 2865.3300000000004ZM1414.01 2857.14C1414.08 2857.23 1414.24 2857.46 1414.51 2857.8199999999997C1414.77 2858.18 1415.09 2858.64 1415.46 2859.2C1415.83 2859.7599999999998 1416.23 2860.3999999999996 1416.68 2861.1099999999997C1417.1200000000001 2861.8299999999995 1417.5600000000002 2862.5799999999995 1417.99 2863.3799999999997C1418.93 2863.0299999999997 1419.74 2862.6499999999996 1420.43 2862.2299999999996C1421.1200000000001 2861.7999999999997 1421.69 2861.3999999999996 1422.14 2861.0199999999995C1422.5900000000001 2860.6399999999994 1422.93 2860.3099999999995 1423.16 2860.0399999999995C1423.38 2859.7699999999995 1423.52 2859.5999999999995 1423.5800000000002 2859.5299999999993C1422.6200000000001 2858.6799999999994 1421.5400000000002 2858.019999999999 1420.3400000000001 2857.5499999999993C1419.13 2857.0799999999995 1417.8600000000001 2856.8399999999992 1416.5000000000002 2856.8399999999992C1415.6700000000003 2856.8399999999992 1414.8400000000001 2856.939999999999 1414.0100000000002 2857.1399999999994ZM1424.77 2860.78C1424.72 2860.8500000000004 1424.56 2861.03 1424.3 2861.3300000000004C1424.03 2861.6300000000006 1423.6599999999999 2861.9800000000005 1423.18 2862.3900000000003C1422.7 2862.8 1422.1000000000001 2863.2300000000005 1421.38 2863.6900000000005C1420.66 2864.1500000000005 1419.8000000000002 2864.5800000000004 1418.8000000000002 2864.9800000000005C1418.9300000000003 2865.2300000000005 1419.0500000000002 2865.4900000000007 1419.17 2865.7500000000005C1419.29 2866.0100000000007 1419.4 2866.2700000000004 1419.51 2866.5200000000004C1419.55 2866.6100000000006 1419.59 2866.7000000000003 1419.6299999999999 2866.7900000000004C1419.6799999999998 2866.8900000000003 1419.7199999999998 2866.9800000000005 1419.7499999999998 2867.0700000000006C1420.6399999999999 2866.9600000000005 1421.5099999999998 2866.9100000000008 1422.3599999999997 2866.9300000000007C1423.2099999999996 2866.9500000000007 1423.9699999999996 2866.9900000000007 1424.6599999999996 2867.0500000000006C1425.3499999999997 2867.120000000001 1425.9199999999996 2867.1900000000005 1426.3699999999997 2867.2700000000004C1426.8199999999997 2867.3500000000004 1427.0899999999997 2867.4000000000005 1427.1799999999996 2867.4200000000005C1427.1699999999996 2866.1500000000005 1426.9499999999996 2864.9600000000005 1426.5299999999995 2863.8400000000006C1426.1199999999994 2862.7200000000007 1425.5299999999995 2861.7000000000007 1424.7699999999995 2860.7800000000007Z " fill="#ffffff" fill-opacity="1" transform="matrix(1,0,0,1,-1404,-2855)"></path></svg>