<svg id="SvgjsSvg1011" xmlns="http://www.w3.org/2000/svg" version="1.1" xmlns:xlink="http://www.w3.org/1999/xlink" xmlns:svgjs="http://svgjs.com/svgjs" width="22" height="20" viewBox="0 0 22 20"><title>linkedin</title><desc>Created with Avocode.</desc><defs id="SvgjsDefs1012"></defs><path id="SvgjsPath1013" d="M1334.3 2858H1319.7C1317.66 2858 1316 2859.51 1316 2861.36V2874.6400000000003C1316 2876.4900000000002 1317.66 2878.0000000000005 1319.7 2878.0000000000005H1334.3C1336.34 2878.0000000000005 1338 2876.4900000000002 1338 2874.6400000000003V2861.36C1338 2859.51 1336.34 2858 1334.3 2858ZM1324.25 2874.25H1321.5V2865.5H1324.25ZM1322.87 2864.25C1322.12 2864.25 1321.5 2863.69 1321.5 2863C1321.5 2862.31 1322.12 2861.75 1322.87 2861.75C1323.6299999999999 2861.75 1324.25 2862.31 1324.25 2863C1324.25 2863.69 1323.63 2864.25 1322.87 2864.25ZM1333.87 2874.25H1331.12V2869.25C1331.12 2868.56 1330.51 2868 1329.75 2868C1328.99 2868 1328.37 2868.56 1328.37 2869.25V2874.25H1325.6299999999999V2865.5H1328.37V2867.05C1328.9399999999998 2866.34 1329.81 2865.5 1330.78 2865.5C1332.49 2865.5 1333.87 2866.9 1333.87 2868.62Z " fill="#ffffff" fill-opacity="1" transform="matrix(1,0,0,1,-1316,-2858)"></path></svg>