<svg id="SvgjsSvg1008" xmlns="http://www.w3.org/2000/svg" version="1.1" xmlns:xlink="http://www.w3.org/1999/xlink" xmlns:svgjs="http://svgjs.com/svgjs" width="22" height="18" viewBox="0 0 22 18"><title>twitter</title><desc>Created with Avocode.</desc><defs id="SvgjsDefs1009"></defs><path id="SvgjsPath1010" d="M1248.39 2859.33C1247.5200000000002 2859.85 1246.5500000000002 2860.23 1245.5300000000002 2860.44C1244.7000000000003 2859.55 1243.5300000000002 2859 1242.2300000000002 2859C1239.7400000000002 2859 1237.7200000000003 2861.04 1237.7200000000003 2863.54C1237.7200000000003 2863.9 1237.7600000000002 2864.25 1237.8300000000002 2864.58C1234.0800000000002 2864.39 1230.7600000000002 2862.58 1228.5300000000002 2859.83C1228.14 2860.5 1227.9200000000003 2861.2799999999997 1227.9200000000003 2862.12C1227.9200000000003 2863.69 1228.7200000000003 2865.08 1229.9300000000003 2865.9C1229.1900000000003 2865.87 1228.4900000000002 2865.67 1227.8900000000003 2865.33V2865.38C1227.8900000000003 2867.59 1229.4400000000003 2869.42 1231.5100000000002 2869.84C1231.13 2869.94 1230.7300000000002 2870 1230.3200000000002 2870C1230.0200000000002 2870 1229.7400000000002 2869.97 1229.4700000000003 2869.92C1230.0400000000002 2871.7200000000003 1231.7100000000003 2873.04 1233.6800000000003 2873.08C1232.1400000000003 2874.29 1230.1900000000003 2875.02 1228.0800000000004 2875.02C1227.7100000000005 2875.02 1227.3500000000004 2875 1227.0000000000005 2874.96C1229.0000000000005 2876.25 1231.3700000000003 2877 1233.9200000000005 2877C1242.2200000000005 2877 1246.7600000000004 2870.07 1246.7600000000004 2864.07L1246.7400000000005 2863.48C1247.6300000000006 2862.84 1248.4000000000005 2862.04 1249.0000000000005 2861.13C1248.1900000000005 2861.4900000000002 1247.3200000000004 2861.7400000000002 1246.4100000000005 2861.85C1247.3400000000006 2861.2799999999997 1248.0500000000006 2860.39 1248.3900000000006 2859.33Z " fill="#ffffff" fill-opacity="1" transform="matrix(1,0,0,1,-1227,-2859)"></path></svg>